<svg xmlns="http://www.w3.org/2000/svg" viewBox="0 0 45.79 45.79"><defs><style>.cls-1{fill:#2195f2;}.cls-2{fill:#f9f9f9;}</style></defs><title>Asset 12</title><g id="Layer_2" data-name="Layer 2"><g id="Layer_1-2" data-name="Layer 1"><path class="cls-1" d="M22.89,0A22.46,22.46,0,0,0,0,21.94,21.5,21.5,0,0,0,7.63,38.27v6.57a1,1,0,0,0,1,.95,1,1,0,0,0,.5-.14l5.32-3.33a23.42,23.42,0,0,0,8.48,1.56,22.45,22.45,0,0,0,22.9-21.94A22.47,22.47,0,0,0,22.89,0Z"/><path class="cls-2" d="M38,15.65a1,1,0,0,0-1.22-.27l-9.92,5.41L20.65,15.5a.93.93,0,0,0-1.29.05L7.91,27a1,1,0,0,0,0,1.35A.94.94,0,0,0,9,28.5L19,23.1l6.18,5.29a1,1,0,0,0,1.29-.05L37.88,16.89A.94.94,0,0,0,38,15.65Z"/></g></g></svg>