<svg xmlns="http://www.w3.org/2000/svg" viewBox="0 0 45.3 45.28"><defs><style>.cls-1{fill:#4cae50;}.cls-2{fill:#f9f9f9;}</style></defs><title>Asset 13</title><g id="Layer_2" data-name="Layer 2"><g id="Layer_1-2" data-name="Layer 1"><path class="cls-1" d="M22.64,0a22.64,22.64,0,0,0-19,34.86L.06,44A1,1,0,0,0,.6,45.21a.83.83,0,0,0,.34.07.87.87,0,0,0,.32-.06l9.43-3.36A22.64,22.64,0,1,0,22.64,0Z"/><path class="cls-2" d="M33.43,26.51s-2.31-1.13-3.75-1.89c-1.64-.84-3.57.74-4.47,1.64a11.44,11.44,0,0,1-3.79-2.41A11.37,11.37,0,0,1,19,20.07c.9-.91,2.47-2.83,1.63-4.47-.74-1.45-1.88-3.76-1.88-3.76a1,1,0,0,0-.85-.52H16A5.68,5.68,0,0,0,11.32,17c0,3,3.55,8.65,5.94,11S25.34,34,28.3,34A5.68,5.68,0,0,0,34,29.24V27.36A.94.94,0,0,0,33.43,26.51Z"/></g></g></svg>