<svg xmlns="http://www.w3.org/2000/svg" viewBox="0 0 49.38 49.38"><defs><style>.cls-1{fill:#bd272d;}.cls-2{fill:#f9f9f9;}</style></defs><title>Asset 11</title><g id="Layer_2" data-name="Layer 2"><g id="Layer_1-2" data-name="Layer 1"><circle class="cls-1" cx="24.69" cy="24.69" r="24.69"/><path class="cls-2" d="M37,29.79a17.08,17.08,0,0,1-7.54-1.72A1.54,1.54,0,0,0,28.3,28a1.57,1.57,0,0,0-.88.78l-1.11,2.3a21.78,21.78,0,0,1-8-8L20.6,22a1.56,1.56,0,0,0,.71-2.07,17,17,0,0,1-1.73-7.55A1.54,1.54,0,0,0,18,10.8h-5.7a1.54,1.54,0,0,0-1.54,1.54A26.26,26.26,0,0,0,37,38.57,1.54,1.54,0,0,0,38.57,37V31.34A1.54,1.54,0,0,0,37,29.79Z"/></g></g></svg>